<svg xmlns="http://www.w3.org/2000/svg" version="1.1" xmlns:xlink="http://www.w3.org/1999/xlink" xmlns:svgjs="http://svgjs.com/svgjs" width="1000" height="1000"><rect width="1000" height="1000" rx="200" ry="200" fill="#d1a3ff"></rect><g transform="matrix(3.3333333333333335,0,0,3.3333333333333335,-5.81843312581384,-7.2255770365397325)"><svg xmlns="http://www.w3.org/2000/svg" version="1.1" xmlns:xlink="http://www.w3.org/1999/xlink" xmlns:svgjs="http://svgjs.com/svgjs" width="300" height="300"><svg id="eWeCwO794MJ1" xmlns="http://www.w3.org/2000/svg" xmlns:xlink="http://www.w3.org/1999/xlink" viewBox="0 0 300 300" shape-rendering="geometricPrecision" text-rendering="geometricPrecision" project-id="a977267414f24f668795fd57c0b80e56" export-id="0a2ceaca101744ffbae153d05087e2b6" cached="false"><path d="M90,150c0-33.13708,26.86292-60,60-60s60,26.86292,60,60-26.86292,60-60,60c-9.41977,0-18.33255-2.17073-26.26538-6.03924-7.178939-10.01187,13.00424-20.83554,13.00424-20.83554c4.09947,1.64265,8.57477,2.54636,13.26114,2.54636c19.70086,0,35.67157-15.97071,35.67157-35.67157s-15.97071-35.67157-35.67157-35.67157-35.67157,15.97071-35.67157,35.67157c0,2.59833.27781,5.13178.80534,7.57226c0,0-4.804374,17.053351-19.50756,17.82861C92.01656,167.68722,90,159.07911,90,150.00001L90,150Z" transform="matrix(0-1 1 0 0 300)" stroke-width="0" stroke-dashoffset="581.25" stroke-dasharray="581.25"></path><path d="M-55.825718,0c0-6.329491,34.576713-11.460557,55.825718-11.460557s38.474727,5.131066,38.474727,11.460557-17.225722,11.460557-38.474727,11.460557-55.825718-5.131066-55.825718-11.460557Z" transform="matrix(.714858 0.699269-.592258 0.605461 180.695648 182.350233)" stroke-width="0"></path></svg></svg></g></svg>